<?xml version="1.0" standalone="no"?><!DOCTYPE svg PUBLIC "-//W3C//DTD SVG 1.1//EN" "http://www.w3.org/Graphics/SVG/1.1/DTD/svg11.dtd"><svg t="1553252558225" class="icon" style="" viewBox="0 0 1216 1024" version="1.1" xmlns="http://www.w3.org/2000/svg" p-id="997" xmlns:xlink="http://www.w3.org/1999/xlink" width="237.5" height="200"><defs><style type="text/css"></style></defs><path d="M935.381333 0H280.618667C125.717333 0 0 132.202667 0 295.317333V1024h935.381333C1090.282667 1024 1216 891.797333 1216 728.682667V295.317333C1216 132.202667 1090.282667 0 935.381333 0z m-646.826666 593.92c-45.546667 0-82.453333-36.693333-82.453334-81.92s36.906667-81.92 82.432-81.92c45.546667 0 82.453333 36.693333 82.453334 81.92s-36.906667 81.92-82.453334 81.92z m329.749333 0c-45.525333 0-82.432-36.693333-82.432-81.92s36.906667-81.92 82.432-81.92 82.432 36.693333 82.432 81.92-36.906667 81.92-82.432 81.92z m329.770667 0c-45.546667 0-82.453333-36.693333-82.453334-81.92s36.906667-81.92 82.453334-81.92c45.525333 0 82.432 36.693333 82.432 81.92s-36.906667 81.92-82.432 81.92z" fill="#00A99D" p-id="998"></path></svg>