<?xml version="1.0" standalone="no"?><!DOCTYPE svg PUBLIC "-//W3C//DTD SVG 1.1//EN" "http://www.w3.org/Graphics/SVG/1.1/DTD/svg11.dtd"><svg t="1553256513058" class="icon" style="" viewBox="0 0 1024 1024" version="1.1" xmlns="http://www.w3.org/2000/svg" p-id="969" xmlns:xlink="http://www.w3.org/1999/xlink" width="200" height="200"><defs><style type="text/css"></style></defs><path d="M512 19.505C238.933 19.505 19.505 238.934 19.505 512S238.934 1004.495 512 1004.495 1004.495 785.066 1004.495 512 785.066 19.505 512 19.505zM238.933 843.581C273.066 721.676 380.343 633.905 512 633.905s238.933 87.771 273.067 209.676c-73.143 58.514-165.79 92.648-268.19 92.648-107.276 9.752-204.8-29.257-277.943-92.648zM370.59 438.857c0-78.019 63.39-136.533 136.533-136.533 78.019 0 136.533 63.39 136.533 136.533S580.266 575.39 507.123 575.39c-73.143 0-136.533-63.39-136.533-136.533z m463.239 365.714c-34.133-97.524-107.276-170.667-204.8-204.8 48.762-34.133 78.019-92.648 78.019-160.914 0-112.152-87.771-199.924-199.924-199.924-107.276 0-199.924 87.771-199.924 199.924 0 63.39 34.133 121.905 78.019 160.914-92.648 34.133-165.79 107.276-199.924 199.924-68.267-78.019-107.276-175.543-107.276-282.819C78.019 277.943 273.067 82.895 512 82.895s433.981 195.048 433.981 433.981c0 107.276-43.886 209.676-112.152 287.695z" p-id="970" fill="#1296db"></path></svg>